PathFileType	4	(X/Y/Z)	1H_nor_med_left.trc
DataRate	CameraRate	NumFrames	NumMarkers	Units	OrigDataRate	OrigDataStartFrame	OrigNumFrames
250.00	250.00	11	18	mm	250.00	5731	7640
Frame#	Time	c7	r_should	l_should	clavicle	r_upa	r_elb_l	r_elb_m	r_low	r_wri_l	r_wri_m	r_met	l_upa	l_elb_l	l_elb_m	l_low	l_wri_l	l_wri_m	l_met
	X1	Y1	Z1	X2	Y2	Z2	X3	Y3	Z3	X4	Y4	Z4	X5	Y5	Z5	X6	Y6	Z6	X7	Y7	Z7	X8	Y8	Z8	X9	Y9	Z9	X10	Y10	Z10	X11	Y11	Z11	X12	Y12	Z12	X13	Y13	Z13	X14	Y14	Z14	X15	Y15	Z15	X16	Y16	Z16	X17	Y17	Z17	X18	Y18	Z18
5731	22.92000	1251.74060	1424.52832	135.96619	1277.41492	1352.31189	306.38458	1297.44788	1361.16541	-29.91386	1355.36060	1278.38245	142.58714	1286.04871	1135.79675	356.91266	1287.81738	1044.49158	371.93445	1221.10767	1017.14172	306.49249	1302.84888	909.66895	366.06415	1314.61011	783.06104	352.23602	1247.38342	786.80042	389.70203	1325.24426	721.58875	398.85916	1312.44067	1158.06299	-105.99534	1328.02490	1051.42615	-126.55238	1244.09680	1036.99353	-70.06335	1337.35388	931.89563	-115.63583	1340.16821	814.18146	-74.92860	1292.28406	807.29877	-138.24373	1374.79382	746.14478	-111.93337
5732	22.92400	1251.69250	1424.52698	135.99809	1277.39587	1352.27991	306.39935	1297.37744	1361.19421	-29.89557	1355.29761	1278.36658	142.57094	1286.04724	1135.75427	356.89023	1287.81616	1044.44617	371.91718	1221.10217	1017.10608	306.46524	1302.81311	909.61432	366.03476	1314.56775	783.02191	352.21219	1247.32800	786.75970	389.65482	1325.17407	721.53308	398.83209	1312.41748	1158.12646	-106.05189	1328.04346	1051.56970	-126.56343	1244.11975	1037.08899	-70.24612	1337.67578	932.10498	-115.27840	1340.82581	814.58868	-74.04205	1293.04187	807.37518	-137.37849	1375.66797	746.50421	-110.74406
5733	22.92800	1251.64600	1424.52380	136.03239	1277.37720	1352.25085	306.41940	1297.30249	1361.22107	-29.86974	1355.24341	1278.36157	142.55818	1286.04944	1135.71924	356.87482	1287.80811	1044.40894	371.89920	1221.10266	1017.06885	306.43280	1302.78381	909.56989	366.01389	1314.53821	782.98224	352.18304	1247.27893	786.71393	389.61252	1325.10754	721.47821	398.80133	1312.39075	1158.18762	-106.12825	1328.05774	1051.71716	-126.57459	1244.13013	1037.18140	-70.45356	1337.99719	932.31201	-114.91331	1341.47241	815.00452	-73.18975	1293.78699	807.45074	-136.49014	1376.54321	746.88354	-109.54659
5734	22.93200	1251.59839	1424.52539	136.06404	1277.36157	1352.21838	306.43820	1297.21973	1361.24805	-29.84509	1355.19385	1278.36218	142.55064	1286.05798	1135.68579	356.85736	1287.80884	1044.37012	371.88611	1221.10303	1017.02905	306.40012	1302.75769	909.52771	365.99567	1314.51172	782.93927	352.15485	1247.22119	786.66821	389.55338	1325.03992	721.42590	398.77127	1312.36292	1158.25171	-106.20993	1328.06519	1051.87317	-126.60195	1244.12476	1037.28650	-70.69810	1338.33813	932.54767	-114.52612	1342.16516	815.52161	-72.25787	1294.53113	807.51392	-135.59883	1377.43872	747.29327	-108.32427
5735	22.93600	1251.55090	1424.52661	136.09282	1277.34778	1352.18860	306.45728	1297.13025	1361.28186	-29.82367	1355.14355	1278.35889	142.53458	1286.06372	1135.64185	356.83725	1287.80945	1044.33398	371.86188	1221.10156	1016.99640	306.36349	1302.73145	909.48303	365.96637	1314.48083	782.89233	352.13626	1247.16357	786.61884	389.48898	1324.97241	721.37604	398.73825	1312.33032	1158.03235	-106.71662	1328.06653	1052.03455	-126.63865	1244.10693	1037.39954	-70.96626	1338.69043	932.79510	-114.13389	1342.85291	816.04205	-71.33904	1295.30029	807.60663	-134.70456	1378.35522	747.73773	-107.09235
5736	22.94000	1251.50488	1424.52576	136.12779	1277.33313	1352.15454	306.47046	1297.02979	1361.31958	-29.79676	1355.09460	1278.35583	142.52228	1286.05884	1135.59802	356.82504	1287.80750	1044.29431	371.83566	1221.10120	1016.96124	306.32559	1302.70422	909.43665	365.93164	1314.44189	782.84052	352.10965	1247.10864	786.57343	389.42926	1324.90686	721.32684	398.70508	1312.28101	1157.45288	-107.76203	1328.06494	1052.20288	-126.68763	1244.08630	1037.51953	-71.24719	1339.03772	933.05420	-113.74942	1343.51062	816.51697	-70.42361	1296.05884	807.73364	-133.79503	1379.26599	748.20795	-105.82796
5737	22.94400	1251.45520	1424.51965	136.16718	1277.32129	1352.12073	306.48773	1296.92676	1361.35535	-29.77348	1355.03723	1278.34265	142.50793	1286.05249	1135.54773	356.80945	1287.79688	1044.24768	371.82437	1221.10059	1016.92627	306.29333	1302.67029	909.39001	365.91022	1314.40308	782.79694	352.07391	1247.05750	786.54175	389.38748	1324.83716	721.27667	398.67404	1312.22791	1157.35767	-108.09978	1328.06360	1052.37891	-126.75327	1244.06384	1037.65430	-71.54949	1339.37708	933.32928	-113.37146	1344.20215	817.07758	-69.46619	1296.85278	807.85815	-132.82715	1380.18311	748.70197	-104.53762
5738	22.94800	1251.40820	1424.50928	136.20505	1277.31580	1352.08350	306.51096	1296.82043	1361.39294	-29.75431	1354.97461	1278.32410	142.48459	1286.04846	1135.50012	356.79465	1287.77820	1044.20068	371.80728	1221.09387	1016.89960	306.26422	1302.62683	909.33368	365.87601	1314.35583	782.75000	352.04620	1247.00256	786.49536	389.34106	1324.76428	721.22668	398.64124	1313.94556	1156.76672	-108.44868	1328.05249	1052.57068	-126.83390	1244.04126	1037.81165	-71.86707	1339.71289	933.61877	-112.99483	1344.94043	817.70575	-68.51722	1297.65222	807.97900	-131.85751	1381.11157	749.21906	-103.23511
5739	22.95200	1251.36304	1424.49792	136.24551	1277.31726	1352.04529	306.53735	1296.70764	1361.43506	-29.73495	1354.91089	1278.30591	142.45511	1286.03149	1135.45752	356.78799	1287.76245	1044.15894	371.79028	1221.06104	1016.88458	306.24200	1302.57593	909.26660	365.82983	1314.29529	782.68823	352.01074	1246.95618	786.44440	389.29807	1324.69727	721.17572	398.60382	1316.10889	1156.05591	-108.80867	1328.02966	1052.77893	-126.92706	1244.03638	1037.96423	-72.17799	1340.05115	933.93793	-112.60785	1345.66626	818.32367	-67.59749	1298.45386	808.15094	-130.91611	1382.04785	749.75507	-101.92536
5740	22.95600	1251.32153	1424.48413	136.28516	1277.32642	1352.01038	306.55511	1296.59363	1361.48193	-29.71721	1354.84216	1278.28845	142.42683	1286.01611	1135.41870	356.77551	1287.74390	1044.10608	371.76901	1221.03235	1016.86224	306.22327	1302.52686	909.21100	365.78662	1314.23877	782.62158	351.97290	1246.90186	786.40454	389.24503	1324.62744	721.12183	398.56036	1314.83264	1156.57812	-108.81739	1328.00232	1053.00378	-127.03103	1244.04919	1038.10974	-72.48680	1340.40344	934.27356	-112.22495	1346.36511	818.95428	-66.65269	1299.27673	808.34326	-129.92426	1382.99365	750.31000	-100.60950
5741	22.96000	1251.28149	1424.47253	136.32417	1277.33521	1351.97766	306.57257	1296.47742	1361.53662	-29.69620	1354.77063	1278.27502	142.38792	1285.99475	1135.37317	356.75974	1287.72009	1044.05469	371.73541	1220.99915	1016.83984	306.20731	1302.47632	909.15918	365.73938	1314.17297	782.57153	351.92047	1246.84949	786.34869	389.18945	1324.56006	721.06726	398.51202	1318.02820	1155.54907	-109.29001	1327.96667	1053.25537	-127.15420	1244.05981	1038.25867	-72.79855	1340.76514	934.61749	-111.87070	1347.11353	819.62537	-65.68417	1300.08643	808.54950	-128.93849	1383.95569	750.89276	-99.25762
